<?xml version="1.0" encoding="UTF-8" standalone="no"?>
<svg width="141px" height="141px" viewBox="0 0 141 141" version="1.1" xmlns="http://www.w3.org/2000/svg" xmlns:xlink="http://www.w3.org/1999/xlink" xmlns:sketch="http://www.bohemiancoding.com/sketch/ns">
    <!-- Generator: Sketch 3.2.2 (9983) - http://www.bohemiancoding.com/sketch -->
    <title>Design Icon</title>
    <desc>Created with Sketch.</desc>
    <defs></defs>
    <g id="Homepage" stroke="none" stroke-width="1" fill="none" fill-rule="evenodd" sketch:type="MSPage">
        <g sketch:type="MSArtboardGroup" transform="translate(-794.000000, -811.000000)" id="Design-Icon">
            <g sketch:type="MSLayerGroup" transform="translate(797.000000, 814.000000)">
                <g id="Oval" stroke="#617890" stroke-width="5" fill="#C4DCF6" sketch:type="MSShapeGroup">
                    <ellipse id="Oval-1" cx="67.6443904" cy="67.488375" rx="67.6443904" ry="67.488375"></ellipse>
                </g>
                <path d="M54.3313334,36.1284083 C53.0372581,36.2568076 52.0267676,37.3427074 52.0267676,38.668698 L52.0267676,42.1492406 C52.0267676,43.5592207 53.171385,44.7022354 54.5888442,44.7022354 L55.7991293,44.7022354 L48.4869565,72.2658634 L67.8445676,106.438976 L87.2021786,72.2658634 L79.897404,44.7022354 L79.897404,44.7022354 L81.1002909,44.7022354 C82.5152867,44.7022354 83.6623675,43.5620102 83.6623675,42.1492406 L83.6623675,38.668698 C83.6623675,37.3484046 82.6587337,36.2621942 81.367242,36.1293518 L85.4358045,22.4695652 L50.285138,22.4695652 L54.3313334,36.1284083 L54.3313334,36.1284083 Z M59.1666093,44.7131651 L76.7012432,44.7131651 L83.6871116,71.1605795 L67.8445674,99.8886651 L52.0020232,71.1605795 L59.1666093,44.7131651 Z M56.0557544,39.5503161 C55.7719242,39.5503161 55.5418343,39.7891002 55.5418343,40.0562764 L55.5418343,40.7616623 C55.5418343,41.0410964 55.7697069,41.2676225 56.0557544,41.2676225 L79.6333807,41.2676225 C79.917211,41.2676225 80.1473008,41.0288384 80.1473008,40.7616623 L80.1473008,40.0562764 C80.1473008,39.7768422 79.9194282,39.5503161 79.6333807,39.5503161 L56.0557544,39.5503161 Z M54.8187036,26.0017976 L57.9338171,36.2429783 L77.5145311,36.2429783 L80.5801996,26.0017976 L54.8187036,26.0017976 Z M66.0870342,70.0023442 L66.0870342,95.2272783 C66.0870342,95.7763323 66.5322199,96.2214285 67.084909,96.2214285 L68.6042262,96.2214285 C69.1553372,96.2214285 69.6021009,95.7674403 69.6021009,95.2272783 L69.6021009,70.0023442 C70.6527572,69.4084806 71.3596342,68.2985105 71.3596342,67.0272191 C71.3596342,65.1303347 69.7858854,63.5926062 67.8445676,63.5926062 C65.9032498,63.5926062 64.3295009,65.1303347 64.3295009,67.0272191 C64.3295009,68.2985105 65.036378,69.4084806 66.0870333,70.0023415 L66.0870342,70.0023442 Z M67.8445676,68.7445255 C68.8152265,68.7445255 69.6021009,67.9756613 69.6021009,67.0272191 C69.6021009,66.0787769 68.8152265,65.3099127 67.8445676,65.3099127 C66.8739087,65.3099127 66.0870342,66.0787769 66.0870342,67.0272191 C66.0870342,67.9756613 66.8739087,68.7445255 67.8445676,68.7445255 Z" id="pen_L-2" fill="#368DE8" sketch:type="MSShapeGroup" transform="translate(67.844568, 64.454271) scale(1, -1) translate(-67.844568, -64.454271) "></path>
            </g>
        </g>
    </g>
</svg>