<?xml version="1.0" encoding="UTF-8" standalone="no"?>
<svg width="141px" height="141px" viewBox="0 0 141 141" version="1.1" xmlns="http://www.w3.org/2000/svg" xmlns:xlink="http://www.w3.org/1999/xlink" xmlns:sketch="http://www.bohemiancoding.com/sketch/ns">
    <!-- Generator: Sketch 3.2.2 (9983) - http://www.bohemiancoding.com/sketch -->
    <title>Development Icon</title>
    <desc>Created with Sketch.</desc>
    <defs></defs>
    <g id="Homepage" stroke="none" stroke-width="1" fill="none" fill-rule="evenodd" sketch:type="MSPage">
        <g sketch:type="MSArtboardGroup" transform="translate(-639.000000, -963.000000)" id="Development-Icon">
            <g sketch:type="MSLayerGroup" transform="translate(642.000000, 966.000000)">
                <g id="Oval" stroke="#617890" stroke-width="5" fill="#C4DCF6" sketch:type="MSShapeGroup">
                    <ellipse id="Oval-1" cx="67.6443904" cy="67.488375" rx="67.6443904" ry="67.488375"></ellipse>
                </g>
                <path d="M42.368253,83.6439209 C42.368253,96.1995573 50.6126166,97.2584664 53.6380711,97.2584664 C54.3187984,97.2584664 54.7726166,97.18283 54.7726166,97.18283 L54.7726166,92.9471937 L54.0918893,92.9471937 C52.2009802,92.9471937 47.1333439,92.19083 47.1333439,83.4926482 L47.1333439,75.1726482 C47.1333439,67.4577391 41.0824348,65.56683 41.0824348,65.56683 L41.0824348,65.4155573 C41.0824348,65.4155573 47.1333439,63.2221028 47.1333439,55.8097391 L47.1333439,48.3973755 C47.1333439,39.6235573 52.2009802,38.94283 54.0918893,38.94283 L54.7726166,38.94283 L54.7726166,34.7071937 L53.6380711,34.7071937 C50.6126166,34.7071937 42.368253,35.7661028 42.368253,48.2461028 L42.368253,54.4482846 C42.368253,62.3901028 35.9391621,63.1464664 35.9391621,63.1464664 L35.9391621,67.8359209 C35.9391621,67.8359209 42.368253,68.5922846 42.368253,76.4584664 L42.368253,83.6439209 Z M80.2620711,92.9471937 L80.2620711,97.18283 C80.2620711,97.18283 80.7158893,97.2584664 81.472253,97.2584664 C84.4220711,97.2584664 92.6664348,96.1995573 92.6664348,83.6439209 L92.6664348,76.4584664 C92.6664348,68.5922846 99.0955257,67.8359209 99.0955257,67.8359209 L99.0955257,63.1464664 C99.0955257,63.1464664 92.6664348,62.3901028 92.6664348,54.4482846 L92.6664348,48.2461028 C92.6664348,35.7661028 84.4220711,34.7071937 81.472253,34.7071937 L80.2620711,34.7071937 L80.2620711,38.94283 L81.0184348,38.94283 C82.8337075,38.94283 87.9013439,39.6235573 87.9013439,48.3973755 L87.9013439,55.8097391 C87.9013439,63.2221028 93.952253,65.4155573 93.952253,65.4155573 L93.952253,65.56683 C93.952253,65.56683 87.9013439,67.4577391 87.9013439,75.1726482 L87.9013439,83.4926482 C87.9013439,92.19083 82.8337075,92.9471937 81.0184348,92.9471937 L80.2620711,92.9471937 L80.2620711,92.9471937 Z" id="{-}" fill="#368DE8" sketch:type="MSShapeGroup"></path>
            </g>
        </g>
    </g>
</svg>