<?xml version="1.0" encoding="UTF-8" standalone="no"?>
<svg width="44px" height="43px" viewBox="0 0 44 43" version="1.1" xmlns="http://www.w3.org/2000/svg" xmlns:xlink="http://www.w3.org/1999/xlink" xmlns:sketch="http://www.bohemiancoding.com/sketch/ns">
    <!-- Generator: Sketch 3.2.2 (9983) - http://www.bohemiancoding.com/sketch -->
    <title>dribbble_L</title>
    <desc>Created with Sketch.</desc>
    <defs></defs>
    <g id="Homepage" stroke="none" stroke-width="1" fill="none" fill-rule="evenodd" sketch:type="MSPage">
        <g sketch:type="MSArtboardGroup" transform="translate(-151.000000, -1323.000000)" id="Footer" fill="#C4DCF6">
            <g sketch:type="MSLayerGroup" transform="translate(0.000000, 1148.000000)">
                <g id="Social-Icons" transform="translate(51.000000, 174.000000)" sketch:type="MSShapeGroup">
                    <g transform="translate(0.000000, 1.000000)" id="dribbble_L">
                        <path d="M122.443114,43 C134.348654,43 144,33.3741227 144,21.5 C144,9.62587729 134.348654,0 122.443114,0 C110.537574,0 100.886228,9.62587729 100.886228,21.5 C100.886228,33.3741227 110.537574,43 122.443114,43 Z M122.443114,41.28 C133.396211,41.28 142.275449,32.4241929 142.275449,21.5 C142.275449,10.5758071 133.396211,1.72 122.443114,1.72 C111.490017,1.72 102.610778,10.5758071 102.610778,21.5 C102.610778,32.4241929 111.490017,41.28 122.443114,41.28 Z M132.124996,13.6754179 C133.877086,15.8775111 134.937865,18.6822824 134.965511,21.7364435 C134.550819,21.6461897 130.392082,20.7785042 126.206656,21.3200268 C126.118285,21.0984201 126.028155,20.875827 125.935469,20.6520832 C125.67435,20.0211288 125.393734,19.3942843 125.101133,18.7777969 C129.751907,16.8244358 131.859881,14.0444884 132.124996,13.6754179 Z M122.388141,8.91810753 C125.58422,8.91810753 128.505276,10.1515756 130.726711,12.1790796 C130.500429,12.5105032 128.606752,15.1288487 124.133999,16.8535341 C122.072688,12.9574977 119.788131,9.75685926 119.440398,9.2779718 C120.386277,9.04337778 121.373226,8.91810753 122.388141,8.91810753 Z M117.040142,10.1477945 C117.371736,10.6156674 119.619538,13.820087 121.703861,17.6316234 C115.819879,19.2392583 110.637438,19.2160784 110.074768,19.2083517 C110.890407,15.192799 113.52094,11.8553826 117.040142,10.1477945 Z M109.809014,21.8587546 C109.809014,21.7264153 109.811571,21.5947336 109.815406,21.4633806 C110.365931,21.4748884 116.461492,21.5557716 122.743385,19.6218093 C123.103583,20.3467986 123.447482,21.082638 123.763254,21.8178198 C123.596898,21.8659881 123.431341,21.9172798 123.267542,21.9718595 C116.779982,24.1290724 113.327737,30.0093763 113.042807,30.5111149 C111.033751,28.2169596 109.809014,25.1823618 109.809014,21.8587546 Z M122.388141,34.7992373 C119.480029,34.7992373 116.799797,33.7784984 114.667054,32.0676225 C114.893336,31.5913654 117.440291,26.5297568 124.535267,23.9863761 C124.562913,23.9765123 124.590559,23.9671417 124.618205,23.9576067 C126.384199,28.6787498 127.114503,32.6354485 127.301633,33.7707718 C125.791326,34.4326327 124.130484,34.7992373 122.388141,34.7992373 Z M129.416478,32.5861295 C129.287517,31.7988339 128.617938,28.0108062 126.972757,23.3596961 C130.91464,22.7104937 134.377752,23.7731536 134.808104,23.9127264 C134.247352,27.5135063 132.238456,30.6232335 129.416478,32.5861295 Z"></path>
                    </g>
                </g>
            </g>
        </g>
    </g>
</svg>