<?xml version="1.0" encoding="UTF-8" standalone="no"?>
<svg width="44px" height="44px" viewBox="0 0 44 44" version="1.1" xmlns="http://www.w3.org/2000/svg" xmlns:xlink="http://www.w3.org/1999/xlink" xmlns:sketch="http://www.bohemiancoding.com/sketch/ns">
    <!-- Generator: Sketch 3.2.2 (9983) - http://www.bohemiancoding.com/sketch -->
    <title>social-network44</title>
    <desc>Created with Sketch.</desc>
    <defs></defs>
    <g id="Homepage" stroke="none" stroke-width="1" fill="none" fill-rule="evenodd" sketch:type="MSPage">
        <g sketch:type="MSArtboardGroup" transform="translate(-202.000000, -1322.000000)" id="Footer" fill="#C4DCF6">
            <g sketch:type="MSLayerGroup" transform="translate(0.000000, 1148.000000)">
                <g id="Social-Icons" transform="translate(51.000000, 174.000000)" sketch:type="MSShapeGroup">
                    <g id="social-network44" transform="translate(151.000000, 0.000000)">
                        <path d="M21.9794776,0 C25.0272985,0 27.8825373,0.576670391 30.5451119,1.73001117 C33.2080149,2.88335196 35.5355821,4.45456983 37.528306,6.4436648 C39.521194,8.43275978 41.0953433,10.7561564 42.2508358,13.4138547 C43.406,16.0715531 43.9838284,18.9214749 43.9838284,21.9636201 C43.9838284,25.0056834 43.406,27.8557691 42.2508358,30.5133855 C41.0953433,33.1712477 39.521194,35.4943985 37.528306,37.4835754 C35.5355821,39.4725885 33.2078507,41.0438063 30.5451119,42.1971471 C27.8824552,43.3504879 25.0272985,43.9270764 21.9794776,43.9270764 C18.9316567,43.9270764 16.0764179,43.3504879 13.4137612,42.197311 C10.7511045,41.0439702 8.42337313,39.4727523 6.43056716,37.4837393 C4.43776119,35.4945624 2.87198507,33.1711657 1.73323881,30.5135493 C0.594492537,27.8557691 0.025119403,25.0057654 0.025119403,21.9636201 C0.025119403,18.9214749 0.594492537,16.0715531 1.73323881,13.4138547 C2.87198507,10.7561564 4.43776119,8.43275978 6.43056716,6.4436648 C8.42337313,4.45456983 10.7511045,2.88335196 13.4137612,1.73001117 C16.0764179,0.576670391 18.9316567,0 21.9794776,0 L21.9794776,0 Z M21.9794776,2.40697207 C19.2665821,2.40697207 16.7211493,2.91678212 14.3431791,3.93640223 C11.965209,4.95602235 9.88867164,6.35173184 8.11356716,8.12353073 C6.33846269,9.89532961 4.94014925,11.968 3.91862687,14.3415419 C2.89710448,16.7150838 2.38634328,19.2557765 2.38634328,21.9636201 C2.38634328,24.6713818 2.89710448,27.2120745 3.91862687,29.5856983 C4.94014925,31.9593222 6.33846269,34.0319106 8.11356716,35.8037914 C9.88867164,37.5755084 11.965209,38.9712998 14.3431791,39.9909199 C16.7211493,41.0104581 19.2665821,41.5203501 21.9794776,41.5203501 C24.6923731,41.5203501 27.237806,41.0104581 29.6158582,39.9909199 C31.9937463,38.9715456 34.0703657,37.5755084 35.8453881,35.8037914 C37.6205746,34.0319106 39.018806,31.9593222 40.0403284,29.5856983 C41.0619328,27.2119106 41.5726119,24.6712179 41.5726119,21.9636201 C41.5726119,19.2559404 41.0619328,16.7150838 40.0403284,14.3415419 C39.0190522,11.968 37.6205746,9.89532961 35.8453881,8.12353073 C34.0703657,6.35173184 31.9937463,4.95602235 29.6158582,3.93640223 C27.237806,2.91678212 24.6923731,2.40697207 21.9794776,2.40697207 L21.9794776,2.40697207 Z M27.6062239,25.5741601 C29.7161716,24.8384507 30.7711866,23.4513445 30.7711866,21.4120223 C30.7711866,20.342257 30.5954328,19.4981453 30.2436791,18.8796872 C29.8920896,18.2612291 29.3310896,17.751419 28.5606791,17.350257 C28.1922612,17.149676 27.7569403,17.0326704 27.2544701,16.9992402 C26.7521642,16.9658101 26.2164478,16.9574525 25.6468284,16.9741676 C25.0774552,16.9908827 24.4748358,17.0243128 23.8383134,17.0744581 C23.2019552,17.1246034 22.565597,17.149676 21.929403,17.149676 C21.2930448,17.149676 20.6566866,17.1246034 20.0203284,17.0744581 C19.3839701,17.0243128 18.7811045,16.9908827 18.2117313,16.9741676 C17.6423582,16.9574525 17.1064776,16.9658101 16.6040896,16.9992402 C16.1017015,17.0326704 15.6662985,17.149676 15.2978806,17.350257 C14.5275522,17.751419 13.9749254,18.2612291 13.64,18.8796872 C13.3050746,19.4981453 13.1376119,20.342257 13.1376119,21.4120223 C13.1376119,23.4513445 14.1926269,24.8386145 16.3026567,25.5741601 C16.6710746,25.6743687 17.0729851,25.7744953 17.5083881,25.8750317 C17.876806,25.9416462 18.3373284,26.0086704 18.8899552,26.0753669 C19.4425821,26.1422272 20.0873134,26.1759032 20.8241493,26.1759032 L23.0345746,26.1759032 C23.7379179,26.1759032 24.3742761,26.142473 24.9439776,26.0753669 C25.5133507,26.0086704 25.9989925,25.9415642 26.400903,25.8750317 C26.8693881,25.7746592 27.2712985,25.6743687 27.6062239,25.5741601 L27.6062239,25.5741601 Z M33.6348806,18.3030168 C33.6348806,19.3727821 33.5174925,20.3840447 33.283291,21.3368045 C33.0487612,22.2893184 32.6134403,23.150473 31.9770821,23.9192849 C31.3407239,24.6882607 30.4614627,25.3234339 29.3394627,25.8248045 C28.2174627,26.3263389 26.7857388,26.6438436 25.0440448,26.7776462 C25.3119851,26.9112849 25.6553657,27.0785177 26.0740224,27.2790168 C26.4926791,27.4796797 26.8527239,27.8641266 27.1541567,28.4323575 C27.3215373,28.7999255 27.4303881,29.3349721 27.4806269,30.0370056 C27.5309478,30.7388752 27.5559851,31.4577877 27.5559851,32.1930875 C27.5559851,32.928797 27.5476119,33.6055121 27.5309478,34.2238883 C27.5141194,34.8424283 27.5393209,35.2186816 27.606306,35.3522384 C27.740194,35.6196797 27.9329403,35.8536089 28.1839701,36.054108 C28.4352463,36.2546071 28.6445746,36.4050428 28.8119552,36.5054153 C28.9793358,36.6059516 29.0294925,36.7312328 28.9626716,36.8816685 C28.8956866,37.0321043 28.6612388,37.1241192 28.2593284,37.1572216 C28.0584552,37.1572216 27.8071791,37.1241192 27.5057463,37.057013 C27.2043134,36.9901527 26.9193806,36.8731471 26.6516866,36.7059143 C26.3839104,36.5388454 26.1576716,36.329825 25.9734627,36.0794264 C25.7892537,35.8284544 25.6972313,35.5026741 25.6972313,35.1012663 L25.6972313,30.9893557 C25.6972313,30.5214153 25.5883806,30.1871136 25.3705149,29.9864507 C25.1531418,29.7859516 24.9270672,29.652149 24.692291,29.5853706 L24.692291,35.0010577 C24.692291,35.9705326 24.8095149,36.6057058 25.0440448,36.9065773 C25.1444403,37.0403799 25.2366269,37.1824581 25.3202761,37.3328939 C25.4039254,37.4833296 25.4543284,37.6086108 25.4709925,37.7089832 C25.4878209,37.8091918 25.4291269,37.8677765 25.2949104,37.8845736 C25.1610224,37.9012067 24.9099925,37.859419 24.5413284,37.7592924 C23.8379851,37.5922235 23.335597,37.2076946 23.0342463,36.6059516 C22.7328955,36.0042086 22.582097,35.3690354 22.582097,34.700432 L22.582097,29.3851173 L21.4770896,29.3851173 L21.4770896,34.700432 C21.4770896,35.3690354 21.3347463,36.0042086 21.0500597,36.6059516 C20.7653731,37.2076946 20.2546119,37.5922235 19.5177761,37.7592924 C19.1493582,37.8596648 18.9065373,37.9012067 18.7893134,37.8845736 C18.6720896,37.8679404 18.6134776,37.8091918 18.6134776,37.7089832 C18.6134776,37.6086108 18.6637164,37.4833296 18.764194,37.3328939 C18.8646716,37.1824581 18.9651493,37.0403799 19.0656269,36.9065773 C19.1326119,36.7729385 19.2079701,36.5388454 19.2917015,36.2045438 C19.3754328,35.870406 19.4172985,35.469162 19.4172985,35.0010577 L19.4172985,29.5853706 C19.1828507,29.652067 18.9651493,29.7857058 18.764194,29.9865326 C18.5632388,30.1870317 18.4627612,30.5213333 18.4627612,30.9894376 L18.4627612,35.1013482 C18.4627612,35.5025102 18.3706567,35.8283724 18.1864478,36.0793445 C18.0022388,36.3301527 17.7761642,36.5387635 17.5082239,36.7059963 C17.2402836,36.8730652 16.955597,36.9903985 16.6541642,37.0569311 C16.3527313,37.1237914 16.1015373,37.1573035 15.9005821,37.1573035 C15.4986716,37.1240372 15.2642239,37.0321862 15.1972388,36.8817505 C15.1302537,36.7313147 15.1804925,36.6058696 15.3479552,36.5056611 C15.5154179,36.4051248 15.7247463,36.254689 15.9759403,36.0540261 C16.2271343,35.8536909 16.4197164,35.6195158 16.5536866,35.3523203 C16.6206716,35.1850875 16.645791,34.7421378 16.6290448,34.0232253 C16.6122985,33.3045587 16.6039254,32.5104283 16.6039254,31.6414898 C16.3359851,31.7418622 15.9843134,31.8087225 15.5489104,31.8421527 C15.1135075,31.8752551 14.6278657,31.8421527 14.0919851,31.7416164 C13.1876866,31.5743836 12.5010896,31.2821974 12.032194,30.8639926 C11.5632985,30.4461155 11.1111493,29.7858696 10.6757463,28.8832551 C10.4412985,28.4487449 10.1817313,28.0893706 9.89704478,27.8051322 C9.61235821,27.5210577 9.36116418,27.2954041 9.14346269,27.1281713 C8.92576119,26.9611024 8.75829851,26.8190242 8.64107463,26.7020186 C8.52385075,26.585013 8.51547761,26.476365 8.61595522,26.3759926 C8.81691045,26.1420633 9.09322388,26.0416909 9.44489552,26.0749572 C9.79656716,26.1083873 10.0058955,26.1586145 10.0728806,26.2253929 C10.474791,26.3924618 10.8767015,26.7435605 11.2786119,27.2786071 C11.6805224,27.8137356 12.0991791,28.264879 12.5345821,28.6324469 C12.7355373,28.7995158 12.9867313,28.9665847 13.2881642,29.1338175 C13.589597,29.3008864 13.9245224,29.4182197 14.2929403,29.4847523 C14.6613582,29.5516127 15.0632687,29.5516127 15.4986716,29.4847523 C15.9340746,29.4181378 16.3694776,29.234108 16.8048806,28.9334004 C16.9053582,28.4985624 17.0644478,28.156149 17.2821493,27.9051769 C17.4998507,27.6543687 17.7342985,27.4538696 17.9854925,27.3034339 C18.2366866,27.1529981 18.4711343,27.0359926 18.6888358,26.9523352 C18.9065373,26.8687598 19.0823731,26.7935419 19.2163433,26.7266816 C17.3742537,26.5930428 15.8670896,26.2840596 14.6948507,25.7993222 C13.5226119,25.3145847 12.593194,24.6958808 11.906597,23.943784 C11.22,23.1916052 10.7511045,22.3307784 10.4999104,21.3612216 C10.2487164,20.3917467 10.1231194,19.3721266 10.1231194,18.3023613 C10.1231194,17.1991657 10.2905821,16.2129758 10.6255075,15.3437914 C10.9604328,14.4746071 11.4293284,13.7057132 12.032194,13.0371099 C11.7642537,12.2347858 11.6721493,11.3906741 11.7558806,10.5047747 C11.8396119,9.61887523 12.0154478,8.82490875 12.2833881,8.12287523 C13.5561045,8.18973557 14.6194925,8.45717691 15.4735522,8.92519926 C16.3276119,9.3932216 16.9221045,9.77766853 17.2570299,10.07854 C18.697209,9.67737803 20.1876269,9.47679702 21.7282836,9.47679702 L22.0799552,9.47679702 C23.5200522,9.47679702 24.9103209,9.64394786 26.249694,9.97824953 C26.6181119,9.67737803 27.2209776,9.30964618 28.0583731,8.875054 C28.8956045,8.44046182 29.9341194,8.18973557 31.173097,8.12287523 C31.4410373,8.79147858 31.6168731,9.54365736 31.7006045,10.3794115 C31.7844179,11.2151657 31.725806,12.0174898 31.5248507,12.7863836 C32.1947015,13.454987 32.7135075,14.2489534 33.0821716,15.1682831 C33.4506716,16.0882682 33.6348806,17.1329609 33.6348806,18.3030168 L33.6348806,18.3030168 Z M21.879,17.149676 L21.9292388,17.149676 L21.9794776,17.149676 L21.879,17.149676 L21.879,17.149676 Z M28.359806,21.0610056 C28.359806,21.5290279 28.2344552,21.9301899 27.9830149,22.2644916 C27.7317388,22.5987933 27.4220149,22.7658622 27.053597,22.7658622 C26.6853433,22.7658622 26.3839104,22.5987933 26.1492985,22.2644916 C25.9150149,21.930108 25.7975448,21.528946 25.7975448,21.0610056 C25.7975448,20.5930652 25.915097,20.1918212 26.1492985,19.8575196 C26.3836642,19.5232179 26.685097,19.356067 27.053597,19.356067 C27.422097,19.356067 27.7319851,19.5232179 27.9830149,19.8575196 C28.234291,20.1918212 28.359806,20.5929832 28.359806,21.0610056 L28.359806,21.0610056 Z M18.513,21.0610056 C18.513,21.5290279 18.387403,21.9301899 18.136209,22.2644916 C17.8850149,22.5987933 17.575209,22.7658622 17.206791,22.7658622 C16.8383731,22.7658622 16.5369403,22.5987933 16.3024925,22.2644916 C16.0680448,21.930108 15.9508209,21.528946 15.9508209,21.0610056 C15.9508209,20.5930652 16.0680448,20.1918212 16.3024925,19.8575196 C16.5369403,19.5232179 16.8383731,19.356067 17.206791,19.356067 C17.575209,19.356067 17.8850149,19.5232179 18.136209,19.8575196 C18.3874851,20.1918212 18.513,20.5929832 18.513,21.0610056 L18.513,21.0610056 Z" id="Shape"></path>
                    </g>
                </g>
            </g>
        </g>
    </g>
</svg>