<?xml version="1.0" encoding="UTF-8" standalone="no"?>
<svg width="217px" height="217px" viewBox="0 0 217 217" version="1.1" xmlns="http://www.w3.org/2000/svg" xmlns:xlink="http://www.w3.org/1999/xlink" xmlns:sketch="http://www.bohemiancoding.com/sketch/ns">
    <!-- Generator: Sketch 3.2.2 (9983) - http://www.bohemiancoding.com/sketch -->
    <title>Jottly Snapshot</title>
    <desc>Created with Sketch.</desc>
    <defs></defs>
    <g id="Homepage" stroke="none" stroke-width="1" fill="none" fill-rule="evenodd" sketch:type="MSPage">
        <g sketch:type="MSArtboardGroup" transform="translate(-282.000000, -477.000000)" id="Jottly-Snapshot">
            <g sketch:type="MSLayerGroup" transform="translate(282.000000, 477.000000)">
                <g id="Project-Photo" fill="#87C145" sketch:type="MSShapeGroup">
                    <rect id="Rectangle-8" x="0" y="0" width="217" height="217"></rect>
                </g>
                <g id="Imported-EPS" transform="translate(25.000000, 80.000000)" sketch:type="MSShapeGroup">
                    <g id="Page-1">
                        <path d="M30.1995455,30.8821053 C30.1995455,43.9573684 22.4544364,48.3342105 13.7407273,48.3342105 C8.27396364,48.3342105 3.26170909,45.5484211 0.0727636364,41.2847368 L3.94558182,37.4763158 C6.2234,40.7736842 10.2095818,43.2178947 13.7976727,43.2178947 C19.1510727,43.2178947 24.7892,40.3189474 24.7892,31.1668421 L24.7892,1.71947368 L30.1995455,1.71947368 L30.1995455,30.8821053" id="Fill-1" fill="#000000"></path>
                        <path d="M53.6600182,48.3342105 C42.3837636,48.3342105 36.7456364,40.6026316 36.7456364,29.8589474 C36.7456364,19.1721053 42.3837636,11.3836842 53.6600182,11.3836842 C64.9932182,11.3836842 70.6313455,19.0578947 70.6313455,29.8589474 C70.6313455,40.4894737 64.8793273,48.3342105 53.6600182,48.3342105 L53.6600182,48.3342105 Z M53.6600182,16.3863158 C45.4018727,16.3863158 41.9851455,22.2410526 41.9851455,29.8589474 C41.9851455,37.4194737 45.4588182,43.3321053 53.7169636,43.3321053 C61.9745818,43.3321053 65.3918364,37.4194737 65.3918364,29.8589474 C65.3918364,22.2984211 61.9176364,16.3863158 53.6600182,16.3863158 L53.6600182,16.3863158 Z" id="Fill-2" fill="#000000"></path>
                        <path d="M98.5330364,44.3547368 C95.2866182,47.0263158 91.9263091,48.3342105 88.1673818,48.3342105 C82.1881091,48.3342105 78.3152909,44.3547368 78.3152909,37.3057895 L78.3152909,17.2952632 L78.6000182,16.7273684 L74.0438545,16.7273684 L74.0438545,11.9521053 L78.6000182,11.9521053 L78.3152909,11.3836842 L78.3152909,5.69947368 L83.5548,2.85684211 L83.5548,11.3836842 L83.2700727,11.9521053 L94.6602182,11.9521053 L94.6602182,16.7273684 L83.2700727,16.7273684 L83.5548,17.2952632 L83.5548,37.0784211 C83.5548,41.2847368 85.434,43.3884211 88.4526364,43.3884211 C90.9582364,43.3884211 92.8379636,42.5926316 94.8310545,40.7168421 L98.5330364,44.3547368" id="Fill-3" fill="#000000"></path>
                        <path d="M123.872709,44.3547368 C120.626291,47.0263158 117.266509,48.3342105 113.507582,48.3342105 C107.527782,48.3342105 103.655491,44.3547368 103.655491,37.3057895 L103.655491,17.2952632 L103.940218,16.7273684 L99.3840545,16.7273684 L99.3840545,11.9521053 L103.940218,11.9521053 L103.655491,11.3836842 L103.655491,5.69947368 L108.894473,2.85684211 L108.894473,11.3836842 L108.609745,11.9521053 L120.000418,11.9521053 L120.000418,16.7273684 L108.609745,16.7273684 L108.894473,17.2952632 L108.894473,37.0784211 C108.894473,41.2847368 110.7742,43.3884211 113.792836,43.3884211 C116.298436,43.3884211 118.177636,42.5926316 120.170727,40.7168421 L123.872709,44.3547368" id="Fill-4" fill="#000000"></path>
                        <path d="M173.927236,11.9521053 L157.696727,51.6315789 C155.589218,56.8047368 151.830291,59.9878947 147.3316,59.9878947 C144.654636,59.9878947 142.433764,59.5331579 140.611509,58.5668421 L140.611509,53.6210526 C142.262927,54.53 144.540745,55.0421053 146.648255,55.0421053 C149.780255,55.0421053 152.058073,52.5410526 153.9378,47.7089474 L137.934545,11.9521053 L143.800455,11.9521053 L154.962818,37.5905263 L156.500345,42.1378947 L156.614236,42.1378947 L158.095345,37.5905263 L168.061327,11.9521053 L173.927236,11.9521053" id="Fill-5" fill="#000000"></path>
                        <path d="M128.2264,0.0121052632 L128.278073,40.2968421 L130.910745,48.3863158 L133.522327,40.3015789 L133.470127,0.0168421053 L128.2264,0.0121052632" id="Fill-6" fill="#000000"></path>
                        <path d="M133.4754,4.33315789 L128.231673,4.32526316" id="Stroke-7" stroke="#FFFFFF" stroke-width="4.33"></path>
                        <path d="M133.523382,40.4521053 L128.279127,40.4473684" id="Stroke-8" stroke="#FFFFFF" stroke-width="1.667"></path>
                        <path d="M129.545636,5.39263158 L129.591509,40.0084211" id="Stroke-9" stroke="#FFFFFF" stroke-width="1.651"></path>
                    </g>
                </g>
            </g>
        </g>
    </g>
</svg>