<?xml version="1.0" encoding="UTF-8" standalone="no"?>
<svg width="44px" height="43px" viewBox="0 0 44 43" version="1.1" xmlns="http://www.w3.org/2000/svg" xmlns:xlink="http://www.w3.org/1999/xlink" xmlns:sketch="http://www.bohemiancoding.com/sketch/ns">
    <!-- Generator: Sketch 3.2.2 (9983) - http://www.bohemiancoding.com/sketch -->
    <title>linkedin_L</title>
    <desc>Created with Sketch.</desc>
    <defs></defs>
    <g id="Homepage" stroke="none" stroke-width="1" fill="none" fill-rule="evenodd" sketch:type="MSPage">
        <g sketch:type="MSArtboardGroup" transform="translate(-51.000000, -1323.000000)" id="Footer" fill="#C4DCF6">
            <g sketch:type="MSLayerGroup" transform="translate(0.000000, 1148.000000)">
                <g id="Social-Icons" transform="translate(51.000000, 174.000000)" sketch:type="MSShapeGroup">
                    <g transform="translate(0.000000, 1.000000)" id="linkedin_L">
                        <path d="M21.5568862,43 C33.4624263,43 43.1137725,33.3741227 43.1137725,21.5 C43.1137725,9.62587729 33.4624263,0 21.5568862,0 C9.65134612,0 0,9.62587729 0,21.5 C0,33.3741227 9.65134612,43 21.5568862,43 Z M21.5568862,41.28 C32.5099831,41.28 41.3892216,32.4241929 41.3892216,21.5 C41.3892216,10.5758071 32.5099831,1.72 21.5568862,1.72 C10.6037893,1.72 1.7245509,10.5758071 1.7245509,21.5 C1.7245509,32.4241929 10.6037893,41.28 21.5568862,41.28 Z M15.3973977,31.82 L15.3973977,15.6453846 L10.5158107,15.6453846 L10.5158107,31.82 L15.3973977,31.82 Z M12.9566042,8.6 C11.3829347,8.6 10.3552322,9.69153846 10.3873479,11.1469231 C10.3552322,12.5361538 11.3829347,13.6607692 12.9244885,13.6607692 C14.5302737,13.6607692 15.5579762,12.5361538 15.5579762,11.1469231 C15.5258605,9.69153846 14.5302737,8.6 12.9566042,8.6 Z M19.3155136,31.82 L24.1971006,31.82 L24.1971006,22.4923077 C24.1971006,22.0292308 24.261332,21.5330769 24.3897948,21.2353846 C24.7109519,20.3092308 25.5138445,19.35 26.862704,19.35 C28.6290677,19.35 29.3356132,20.7723077 29.3356132,22.8561538 L29.3356132,31.82 L34.2172002,31.82 L34.2172002,22.2276923 C34.2172002,17.4646154 31.8085224,15.2815385 28.596952,15.2815385 C25.99558,15.2815385 24.3897948,16.8361538 23.7474807,17.8615385 L23.6511336,17.8615385 L23.4263237,15.6453846 L19.1870508,15.6453846 C19.2512822,17.0676923 19.3155136,18.7876923 19.3155136,20.8053846 L19.3155136,31.82 Z"></path>
                    </g>
                </g>
            </g>
        </g>
    </g>
</svg>