<?xml version="1.0" encoding="UTF-8" standalone="no"?>
<svg width="44px" height="43px" viewBox="0 0 44 43" version="1.1" xmlns="http://www.w3.org/2000/svg" xmlns:xlink="http://www.w3.org/1999/xlink" xmlns:sketch="http://www.bohemiancoding.com/sketch/ns">
    <!-- Generator: Sketch 3.2.2 (9983) - http://www.bohemiancoding.com/sketch -->
    <title>twitter_L</title>
    <desc>Created with Sketch.</desc>
    <defs></defs>
    <g id="Homepage" stroke="none" stroke-width="1" fill="none" fill-rule="evenodd" sketch:type="MSPage">
        <g sketch:type="MSArtboardGroup" transform="translate(-101.000000, -1323.000000)" id="Footer" fill="#C4DCF6">
            <g sketch:type="MSLayerGroup" transform="translate(0.000000, 1148.000000)">
                <g id="Social-Icons" transform="translate(51.000000, 174.000000)" sketch:type="MSShapeGroup">
                    <g transform="translate(0.000000, 1.000000)" id="twitter_L">
                        <path d="M71.5688623,43 C83.4744024,43 93.1257485,33.3741227 93.1257485,21.5 C93.1257485,9.62587729 83.4744024,0 71.5688623,0 C59.6633222,0 50.011976,9.62587729 50.011976,21.5 C50.011976,33.3741227 59.6633222,43 71.5688623,43 Z M71.5688623,41.28 C82.5219592,41.28 91.4011976,32.4241929 91.4011976,21.5 C91.4011976,10.5758071 82.5219592,1.72 71.5688623,1.72 C60.6157654,1.72 51.7365269,10.5758071 51.7365269,21.5 C51.7365269,32.4241929 60.6157654,41.28 71.5688623,41.28 Z M65.2321055,15.9933396 C69.3767754,18.0802726 72.8794993,17.9598726 72.8794993,17.9598726 C72.8794993,17.9598726 71.5515951,13.3445398 75.6560257,11.2977405 C79.7604561,9.25094085 82.584894,12.7017788 82.584894,12.7017788 C82.584894,12.7017788 83.3007242,12.5057949 83.834088,12.309811 C84.3674517,12.1138271 85.1394255,11.7638559 85.1394255,11.7638559 L83.8746624,14.0154294 L85.822206,13.8095341 C85.822206,13.8095341 85.582166,14.1595751 84.8027267,14.8725409 C84.0232874,15.5855066 83.7020422,15.9538334 83.7020422,15.9538334 C83.7020422,15.9538334 83.9804788,21.5093039 81.0462343,25.7864982 C78.1119894,30.0636923 74.3207734,32.630753 68.8134222,33.1710302 C63.306071,33.7113074 59.7192922,31.4854305 59.7192922,31.4854305 C59.7192922,31.4854305 62.127929,31.348331 63.6627645,30.7630306 C65.1976001,30.1777304 67.4050392,28.6359643 67.4050392,28.6359643 C67.4050392,28.6359643 64.2663572,27.6727645 63.1396508,26.5891647 C62.0129444,25.5055649 61.7312678,24.8634317 61.7312678,24.8634317 L64.8297104,24.8232984 C64.8297104,24.8232984 61.5703098,23.0975654 60.644801,21.7330323 C59.7192921,20.3684993 59.5985736,19.0440995 59.5985736,19.0440995 L61.9806843,20.0035014 C61.9806843,20.0035014 60.0009689,17.3183664 59.7192922,15.2314335 C59.4376156,13.1445005 60.0814478,12.0207674 60.0814478,12.0207674 C60.0814478,12.0207674 61.0874356,13.9064066 65.2321055,15.9933396 Z"></path>
                    </g>
                </g>
            </g>
        </g>
    </g>
</svg>