<?xml version="1.0" encoding="UTF-8" standalone="no"?>
<svg width="141px" height="141px" viewBox="0 0 141 141" version="1.1" xmlns="http://www.w3.org/2000/svg" xmlns:xlink="http://www.w3.org/1999/xlink" xmlns:sketch="http://www.bohemiancoding.com/sketch/ns">
    <!-- Generator: Sketch 3.2.2 (9983) - http://www.bohemiancoding.com/sketch -->
    <title>UX Icon</title>
    <desc>Created with Sketch.</desc>
    <defs></defs>
    <g id="Homepage" stroke="none" stroke-width="1" fill="none" fill-rule="evenodd" sketch:type="MSPage">
        <g sketch:type="MSArtboardGroup" transform="translate(-636.000000, -811.000000)" id="UX-Icon">
            <g sketch:type="MSLayerGroup" transform="translate(638.500000, 814.000000)">
                <g id="Oval" transform="translate(0.710272, 0.000000)" stroke="#617890" stroke-width="5" fill="#C4DCF6" sketch:type="MSShapeGroup">
                    <path d="M67.5543465,134.97675 C104.863582,134.97675 135.108693,104.761175 135.108693,67.488375 C135.108693,30.2155747 104.863582,0 67.5543465,0 C30.2451112,0 0,30.2155747 0,67.488375 C0,104.761175 30.2451112,134.97675 67.5543465,134.97675 Z" id="Oval-1"></path>
                </g>
                <g id="Lightbulb" transform="translate(29.015753, 21.034927)" stroke="#368DE8" sketch:type="MSShapeGroup">
                    <path d="M27.4231152,57.5615824 C27.3278644,57.3016634 27.2262624,57.0255381 27.1179863,56.7323566 C23.8415711,47.8607386 19.5825235,46.3887723 19.1347792,39.8896055 C18.1783064,26.0060635 28.1798894,17.3414221 39.3375983,17.3414221 C50.4953072,17.3414221 59.6433972,24.0422408 59.5404175,39.8896055 C59.504512,45.4150428 55.5864143,47.0770797 52.2853155,54.6096094 C51.8635274,55.5720559 51.5238118,56.3462492 51.2520814,56.9685361 L51.2520814,66.8060865 C51.2520814,67.3585466 50.7973442,67.806404 50.2585181,67.806404 L28.4166785,67.806404 C27.8679487,67.806404 27.4231152,67.3628843 27.4231152,66.8060865 L27.4231152,57.5615824 Z" id="Oval-50" stroke-width="2" fill="#C4DCF6"></path>
                    <path d="M27.0167554,26.882554 C30.0187946,22.1718143 38.6977689,21.8602083 38.6977689,21.8602083 C39.9640551,21.7377654 41.3165032,22.5889614 41.5399531,23.2405907 L41.5399531,23.2405907 C40.5233711,24.8357911 38.7703578,24.6056807 37.8193995,24.6014259 C36.6746687,24.5963041 33.3289818,25.0710998 31.2271619,27.2160294 C30.7506238,27.7023416 32.3176989,25.5047805 29.9389988,28.5650626 C27.5602987,31.6253447 28.1810322,30.7399506 27.5399589,33.0019142 C26.8988856,35.2638779 30.8721577,38.9358571 30.2189762,39.9608164 C29.5657947,40.9857757 26.7416359,38.4112274 26.7416359,38.4112274 C25.7754743,37.6316817 24.8822697,36.0262474 24.840241,34.8108561 C24.840241,34.8108561 24.0147161,31.5932938 27.0167554,26.882554 L27.0167554,26.882554 Z" id="Rectangle-78" fill="#368DE8"></path>
                    <rect id="Rectangle-73" fill="#368DE8" x="28.0982845" y="72.3283478" width="22.4786276" height="3.50052174" rx="1"></rect>
                    <path d="M6.48656416,67.3624456 C5.97395147,66.5253088 6.2680871,65.4603485 7.17170361,64.9684562 L14.2702537,61.1042926 C15.1612584,60.6192656 16.2955414,60.8988708 16.8117279,61.741844 L16.8117279,61.741844 C17.3243406,62.5789808 17.030205,63.6439411 16.1265884,64.1358334 L9.02803837,67.999997 C8.13703361,68.485024 7.00275069,68.2054189 6.48656416,67.3624456 L6.48656416,67.3624456 L6.48656416,67.3624456 Z" id="Rectangle-73" fill="#368DE8"></path>
                    <path d="M6.63579143,14.5311213 C6.1216513,15.3682581 6.41666337,16.4332184 7.32297241,16.9251107 L14.4426742,20.7892743 C15.3363339,21.2743013 16.4739967,20.9946961 16.9917213,20.1517229 L16.9917213,20.1517229 C17.5058614,19.3145861 17.2108494,18.2496258 16.3045403,17.7577335 L9.18483854,13.8935699 C8.29117883,13.4085429 7.15351606,13.688148 6.63579143,14.5311213 L6.63579143,14.5311213 L6.63579143,14.5311213 Z" id="Rectangle-73" fill="#368DE8"></path>
                    <path d="M73.1554741,67.3624456 C73.6696142,66.5253088 73.3746021,65.4603485 72.4682931,64.9684562 L65.3485913,61.1042926 C64.4549316,60.6192656 63.3172688,60.8988708 62.7995442,61.741844 L62.7995442,61.741844 C62.2854041,62.5789808 62.5804161,63.6439411 63.4867252,64.1358334 L70.606427,67.999997 C71.5000867,68.485024 72.6377494,68.2054189 73.1554741,67.3624456 L73.1554741,67.3624456 L73.1554741,67.3624456 Z" id="Rectangle-73" fill="#368DE8"></path>
                    <path d="M73.2853732,14.5311213 C73.7995133,15.3682581 73.5045012,16.4332184 72.5981922,16.9251107 L65.4784904,20.7892743 C64.5848307,21.2743013 63.4471679,20.9946961 62.9294433,20.1517229 L62.9294433,20.1517229 C62.4153032,19.3145861 62.7103152,18.2496258 63.6166243,17.7577335 L70.7363261,13.8935699 C71.6299858,13.4085429 72.7676485,13.688148 73.2853732,14.5311213 L73.2853732,14.5311213 L73.2853732,14.5311213 Z" id="Rectangle-73" fill="#368DE8"></path>
                    <rect id="Rectangle-73" fill="#368DE8" x="1.13432865" y="39.7346375" width="11.9579978" height="3.50052174" rx="1"></rect>
                    <path d="M39.6536407,0.502448768 C40.6812946,0.468713435 41.5430573,1.21354829 41.5795801,2.19673358 L41.8664932,9.92035296 C41.9025063,10.889816 41.1057873,11.7028337 40.0709688,11.7368042 L40.0709688,11.7368042 C39.0433149,11.7705396 38.1815522,11.0257047 38.1450294,10.0425194 L37.8581163,2.31890003 C37.8221032,1.34943703 38.6188222,0.536419297 39.6536407,0.502448768 L39.6536407,0.502448768 L39.6536407,0.502448768 Z" id="Rectangle-73" fill="#368DE8"></path>
                    <rect id="Rectangle-73" fill="#368DE8" x="65.5202774" y="39.7346375" width="11.9579978" height="3.50052174" rx="1"></rect>
                    <rect id="Rectangle-73" fill="#368DE8" x="29.9715035" y="77.5791304" width="18.7321897" height="3.50052174" rx="1"></rect>
                    <rect id="Rectangle-73" fill="#368DE8" x="31.8447225" y="82.829913" width="14.9857517" height="3.50052174" rx="1"></rect>
                </g>
            </g>
        </g>
    </g>
</svg>